HIERARCHY
ROOT Pelvis
{
	OFFSET 0.000000 0.000000 0.000000
	CHANNELS 6 Xposition Yposition Zposition Xrotation Yrotation Zrotation
	JOINT LeftUpLeg_virtual
	{
		OFFSET 0.000000 0.000000 0.000000
		CHANNELS 3 Xrotation Yrotation Zrotation
		JOINT LeftUpLeg
		{
			OFFSET 18.735201 -5.666702 -4.541200
			CHANNELS 3 Xrotation Yrotation Zrotation
			JOINT LeftLeg
			{
				OFFSET -0.021200 -31.938179 0.493100
				CHANNELS 3 Xrotation Yrotation Zrotation
				JOINT LeftFoot
				{
					OFFSET 0.021200 -31.938179 -4.336299
					CHANNELS 3 Xrotation Yrotation Zrotation
					JOINT LeftToeBase
					{
						OFFSET 0.943001 -26.722000 15.023500
						CHANNELS 3 Xrotation Yrotation Zrotation
						End Site
						{
							OFFSET 0 0 0
						}
					}
				}
			}
		}
	}
	JOINT RightUpLeg_virtual
	{
		OFFSET 0.000000 0.000000 0.000000
		CHANNELS 3 Xrotation Yrotation Zrotation
		JOINT RightUpLeg
		{
			OFFSET -18.735201 -5.666702 -4.541200
			CHANNELS 3 Xrotation Yrotation Zrotation
			JOINT RightLeg
			{
				OFFSET 0.018946 -31.938133 0.493100
				CHANNELS 3 Xrotation Yrotation Zrotation
				JOINT RightFoot
				{
					OFFSET -0.018946 -31.938126 -4.336299
					CHANNELS 3 Xrotation Yrotation Zrotation
					JOINT RightToeBase
					{
						OFFSET -0.943001 -26.722004 15.023500
						CHANNELS 3 Xrotation Yrotation Zrotation
						End Site
						{
							OFFSET 0 0 0
						}
					}
				}
			}
		}
	}
	JOINT Hips_virtual
	{
		OFFSET 0.000000 0.000000 0.000000
		CHANNELS 3 Xrotation Yrotation Zrotation
		JOINT Hips
		{
			OFFSET -0.000000 -0.000000 -0.000000
			CHANNELS 3 Xrotation Yrotation Zrotation
			JOINT Spine
			{
				OFFSET 0.000000 10.199997 -0.299500
				CHANNELS 3 Xrotation Yrotation Zrotation
				JOINT Spine1
				{
					OFFSET 0.000000 11.900002 -1.516600
					CHANNELS 3 Xrotation Yrotation Zrotation
					JOINT Spine2
					{
						OFFSET 0.000000 13.600006 -2.842500
						CHANNELS 3 Xrotation Yrotation Zrotation
						JOINT Neck_virtual
						{
							OFFSET 0.000000 0.000000 0.000000
							CHANNELS 3 Xrotation Yrotation Zrotation
							JOINT Neck
							{
								OFFSET 0.000000 9.624100 -2.890100
								CHANNELS 3 Xrotation Yrotation Zrotation
								JOINT Head
								{
									OFFSET 0.000000 14.068802 -1.351900
									CHANNELS 3 Xrotation Yrotation Zrotation
									End Site
									{
										OFFSET 0 0 0
									}
								}
							}
						}
						JOINT LeftShoulder_virtual
						{
							OFFSET 0.000000 0.000000 0.000000
							CHANNELS 3 Xrotation Yrotation Zrotation
							JOINT LeftShoulder
							{
								OFFSET 15.263000 10.923401 -0.547700
								CHANNELS 3 Xrotation Yrotation Zrotation
								JOINT LeftArm
								{
									OFFSET 25.438599 -2.830597 -13.032500
									CHANNELS 3 Xrotation Yrotation Zrotation
									JOINT LeftForeArm
									{
										OFFSET 29.960503 0.000000 0.000000
										CHANNELS 3 Xrotation Yrotation Zrotation
										JOINT LeftHand
										{
											OFFSET 27.849251 0.000000 0.000000
											CHANNELS 3 Xrotation Yrotation Zrotation
											End Site
											{
												OFFSET 0 0 0
											}
										}
									}
								}
							}
						}
						JOINT RightShoulder_virtual
						{
							OFFSET 0.000000 0.000000 0.000000
							CHANNELS 3 Xrotation Yrotation Zrotation
							JOINT RightShoulder
							{
								OFFSET -15.263000 10.923401 -0.547700
								CHANNELS 3 Xrotation Yrotation Zrotation
								JOINT RightArm
								{
									OFFSET -25.438599 -2.830597 -13.032500
									CHANNELS 3 Xrotation Yrotation Zrotation
									JOINT RightForeArm
									{
										OFFSET -29.960503 0.000000 0.000000
										CHANNELS 3 Xrotation Yrotation Zrotation
										JOINT RightHand
										{
											OFFSET -27.849251 0.000000 0.000000
											CHANNELS 3 Xrotation Yrotation Zrotation
											End Site
											{
												OFFSET 0 0 0
											}
										}
									}
								}
							}
						}
					}
				}
			}
		}
	}
}
MOTION
Frames: 9
Frame Time: 0.03333333
0.240848 84.498055 2.944489 0.000000 0.000000 0.000000 -14.105905 4.532477 -0.104806 -21.660912 -4.927548 16.759225 61.522335 -1.785230 0.174997 -24.860495 -0.324718 -14.605596 0.000000 0.000000 0.000000 -14.105905 4.532477 -0.104806 -13.958682 -8.105648 -18.417723 59.780821 1.435386 -0.212857 -30.094937 -5.208992 13.131201 0.000000 0.000000 0.000000 -14.105905 4.532477 -0.104806 -0.000001 0.000000 0.000000 20.016245 -0.089242 0.603570 6.967313 -0.338752 0.679832 0.000000 0.000000 0.000000 6.967508 -0.337004 0.677442 -2.448864 -0.257673 -0.077651 0.000000 0.000000 0.000000 6.967508 -0.337004 0.677442 3.082227 -9.945128 -6.811321 -13.959244 -7.908229 -60.295237 69.634284 -63.509107 71.597110 0.000000 0.000000 0.000000 6.967508 -0.337004 0.677442 8.709554 -2.418516 18.823129 -21.494467 12.934316 56.855495 76.344159 65.517012 -70.724594 0.000000 0.000000 0.000000 
0.286211 84.392815 3.080460 0.000000 0.000000 0.000000 -14.124468 4.628280 -0.165036 -21.749025 -4.998014 16.854438 61.944119 -1.796931 0.175818 -25.189995 -0.423421 -14.615464 0.000000 0.000000 0.000000 -14.124468 4.628280 -0.165036 -13.821890 -8.182132 -18.427888 59.931099 1.440930 -0.214121 -30.336155 -5.237195 13.211269 0.000000 0.000000 0.000000 -14.124468 4.628280 -0.165036 -0.000001 0.000000 0.000000 20.011177 -0.076465 0.641625 6.966027 -0.327721 0.719249 0.000000 0.000000 0.000000 6.966378 -0.324708 0.716456 -2.509902 -0.268114 -0.099401 0.000000 0.000000 0.000000 6.966378 -0.324708 0.716456 2.764797 -10.227419 -8.150476 -14.313654 -7.958064 -56.721835 68.594395 -63.723384 67.966393 0.000000 0.000000 0.000000 6.966378 -0.324708 0.716456 8.718472 -2.429205 18.921152 -21.496053 12.656101 56.308288 77.004044 65.942587 -71.153100 0.000000 0.000000 0.000000 
0.360159 84.281387 3.248669 0.000000 0.000000 0.000000 -14.170160 4.919830 -0.237128 -21.864545 -5.322655 16.846807 62.449417 -1.811228 0.176709 -25.536599 -0.457379 -14.622923 0.000000 0.000000 0.000000 -14.170160 4.919830 -0.237128 -13.486450 -8.393176 -18.413801 59.985904 1.446749 -0.214581 -30.627193 -5.376403 13.316742 0.000000 0.000000 0.000000 -14.170160 4.919830 -0.237128 -0.000001 0.000000 0.000000 19.990219 -0.049711 0.702518 6.937511 -0.293119 0.836672 0.000000 0.000000 0.000000 6.937982 -0.289781 0.834064 -2.499099 -0.304308 -0.102529 0.000000 0.000000 0.000000 6.937982 -0.289781 0.834064 2.431006 -10.738113 -9.036974 -14.974693 -8.818248 -52.449303 66.100119 -62.633729 61.042425 0.000000 0.000000 0.000000 6.937982 -0.289781 0.834064 8.767408 -2.495619 19.020516 -21.838845 11.822596 55.109832 78.559039 66.918252 -72.239489 0.000000 0.000000 0.000000 
0.452619 84.235481 3.464748 0.000000 0.000000 0.000000 -14.235380 5.604350 -0.365971 -21.995453 -6.074262 16.739045 62.881399 -1.825299 0.176969 -25.772761 -0.464243 -14.649525 0.000000 0.000000 0.000000 -14.235380 5.604350 -0.365971 -12.747846 -9.090125 -18.347736 59.606993 1.446098 -0.211618 -30.874559 -5.549560 13.421476 0.000000 0.000000 0.000000 -14.235380 5.604350 -0.365971 0.000000 0.000000 0.000000 19.928853 -0.051798 0.859650 6.839932 -0.351177 1.068726 0.000000 0.000000 0.000000 6.840726 -0.346985 1.066124 -2.372324 -0.358450 -0.057500 0.000000 0.000000 0.000000 6.840726 -0.346985 1.066124 2.111464 -11.543111 -9.212452 -15.811277 -10.260028 -48.386607 61.977000 -60.070694 50.772129 0.000000 0.000000 0.000000 6.840726 -0.346985 1.066124 8.956368 -2.757030 19.125559 -23.419078 9.145776 51.563567 83.811373 69.708494 -76.139233 0.000000 0.000000 0.000000 
0.600048 84.330765 3.754852 0.000000 0.000000 0.000000 -14.241376 7.103515 -0.528437 -22.260251 -7.684768 16.274447 63.061224 -1.833255 0.176274 -25.688008 -0.373979 -14.685328 0.000000 0.000000 0.000000 -14.241376 7.103515 -0.528437 -11.322491 -10.732123 -18.245145 58.350702 1.434888 -0.201281 -30.997290 -5.811222 13.551375 0.000000 0.000000 0.000000 -14.241376 7.103515 -0.528437 0.000000 0.000000 0.000000 19.831864 -0.173730 1.136264 6.679607 -0.664824 1.500897 0.000000 0.000000 0.000000 6.680941 -0.660218 1.497984 -2.270478 -0.431656 -0.019446 0.000000 0.000000 0.000000 6.680941 -0.660218 1.497984 1.789837 -12.847867 -9.248319 -16.587442 -11.925818 -44.313523 58.095957 -56.142355 39.239116 0.000000 0.000000 0.000000 6.680941 -0.660218 1.497984 9.320059 -3.255912 19.377689 -26.545505 4.429798 44.221397 98.063717 74.446658 -87.427364 0.000000 0.000000 0.000000 
0.872781 84.587700 4.131435 0.000000 0.000000 0.000000 -14.052808 9.636707 -0.420263 -22.833457 -10.134221 14.970193 62.685011 -1.816175 0.175591 -25.044466 -0.214052 -14.642519 0.000000 0.000000 0.000000 -14.052808 9.636707 -0.420263 -9.275010 -13.348176 -18.387323 56.186202 1.424645 -0.181288 -31.032063 -6.298337 13.823114 0.000000 0.000000 0.000000 -14.052808 9.636707 -0.420263 0.000000 -0.000001 0.000000 19.727535 -0.536660 1.462463 6.504438 -1.431118 1.882393 0.000000 0.000000 0.000000 6.507060 -1.425646 1.878502 -2.226100 -0.524380 0.172580 0.000000 0.000000 0.000000 6.507060 -1.425646 1.878502 1.588963 -13.978032 -8.328291 -17.056985 -13.550093 -41.040271 56.173245 -51.841925 28.627789 0.000000 0.000000 0.000000 6.507060 -1.425646 1.878502 9.792477 -3.914208 19.480531 -31.132702 -0.339090 35.023427 124.315535 78.102093 -109.822079 0.000000 0.000000 0.000000 
1.194864 84.995743 4.590427 0.000000 0.000000 0.000000 -13.564006 12.781568 0.002147 -23.679947 -12.783863 13.088885 61.505963 -1.769783 0.174181 -23.843092 -0.203851 -14.572460 0.000000 0.000000 0.000000 -13.564006 12.781568 0.002147 -7.024377 -16.584866 -18.707289 53.312044 1.414430 -0.153427 -30.916486 -6.905041 14.190861 0.000000 0.000000 0.000000 -13.564006 12.781568 0.002147 0.000000 0.000000 0.000000 19.549052 -0.990986 1.745731 6.178184 -2.345256 2.098796 0.000000 0.000000 0.000000 6.182866 -2.338606 2.094054 -2.143456 -0.686560 0.424346 0.000000 0.000000 0.000000 6.182866 -2.338606 2.094054 1.404413 -15.136532 -7.787822 -17.214664 -14.704907 -38.224460 55.783917 -48.087950 19.885730 0.000000 0.000000 0.000000 6.182866 -2.338606 2.094054 10.461298 -5.010223 18.057335 -40.871046 -3.435844 27.351764 152.786837 78.755858 -135.528042 0.000000 0.000000 0.000000 
1.524402 85.537804 5.113689 0.000000 0.000000 0.000000 -12.712670 15.753785 0.518358 -24.563192 -14.751443 11.289942 59.531840 -1.698645 0.171086 -22.349108 -0.555048 -14.454531 0.000000 0.000000 0.000000 -12.712670 15.753785 0.518358 -5.084694 -19.890826 -19.069209 49.949231 1.399858 -0.119859 -30.457528 -7.306798 14.611042 0.000000 0.000000 0.000000 -12.712670 15.753785 0.518358 0.000001 0.000001 -0.000000 19.323473 -1.335049 1.892178 5.743331 -3.020435 2.099366 0.000000 0.000000 0.000000 5.750170 -3.012932 2.094080 -2.166525 -0.953761 0.690933 0.000000 0.000000 0.000000 5.750170 -3.012932 2.094080 1.157923 -16.207656 -8.247224 -16.888987 -14.699108 -35.891732 56.496538 -45.151092 14.414141 0.000000 0.000000 0.000000 5.750170 -3.012932 2.094080 11.395056 -7.137737 13.109341 -62.270384 -4.963866 26.779949 167.974706 77.950599 -151.569998 0.000000 0.000000 0.000000 
1.836592 86.184074 5.584843 0.000000 0.000000 0.000000 -11.476716 18.023689 1.129216 -25.311137 -15.502393 9.755744 56.712959 -1.599433 0.166363 -20.587372 -1.261111 -14.206287 0.000000 0.000000 0.000000 -11.476716 18.023689 1.129216 -4.082535 -22.709759 -19.726338 46.646774 1.387626 -0.085803 -29.667446 -7.363978 15.047675 0.000000 0.000000 0.000000 -11.476716 18.023689 1.129216 0.000000 -0.000001 0.000000 19.100288 -1.437701 1.868330 5.286890 -3.190173 1.832915 0.000000 0.000000 0.000000 5.295555 -3.181832 1.826789 -2.270588 -1.300015 0.905189 0.000000 0.000000 0.000000 5.295555 -3.181832 1.826789 0.876379 -16.787126 -9.254181 -16.250600 -13.162090 -34.726953 56.412882 -43.541414 11.970883 0.000000 0.000000 0.000000 5.295555 -3.181832 1.826789 11.300142 -7.625741 9.313196 -80.343659 -2.263664 29.506964 172.722794 80.093708 -156.909458 0.000000 0.000000 0.000000 
